<svg width="100" height="18" viewBox="0 0 100 18" fill="none" xmlns="http://www.w3.org/2000/svg">
<path d="M37.6506 17.6034V4.79021H40.3192C40.4558 5.07779 40.562 5.3788 40.6363 5.68838C40.8477 6.32251 40.954 7.03588 40.9553 7.82849V8.01355C41.2194 6.90374 41.73 6.03629 42.4872 5.41119C43.2445 4.78609 44.1516 4.47341 45.2085 4.47314C47.41 4.47314 48.5989 5.70606 48.7752 8.17188C49.0746 6.99215 49.6293 6.08069 50.4395 5.43751C51.2497 4.79433 52.192 4.47288 53.2664 4.47314C54.4629 4.47314 55.4052 4.85177 56.0933 5.60901C56.7814 6.36625 57.125 7.49347 57.1239 8.99068V17.6054H53.7685V9.15021C53.7685 8.39323 53.632 7.85162 53.3589 7.52538C53.0859 7.19914 52.6147 7.03615 51.9455 7.03642C51.0473 7.03642 50.3472 7.35348 49.8452 7.98762C49.3433 8.62176 49.0835 9.52005 49.0659 10.6825V17.6034H45.7106V9.14821C45.7106 8.39124 45.574 7.84963 45.301 7.52339C45.0279 7.19714 44.5568 7.03416 43.8875 7.03442C43.0069 7.03442 42.3112 7.35149 41.8005 7.98563C41.2897 8.61976 41.0255 9.51806 41.008 10.6805V17.6034H37.6506Z" fill="white"/>
<path d="M65.1625 17.8941C63.3484 17.8941 61.825 17.3172 60.5923 16.1635C59.3597 15.0099 58.7427 13.3058 58.7414 11.0514V10.9987C58.7414 8.9905 59.3358 7.4009 60.5245 6.22994C61.7133 5.05898 63.2588 4.47404 65.1609 4.4751C67.0633 4.4751 68.6133 5.05632 69.8108 6.21877C71.0083 7.38123 71.6066 8.96643 71.6055 10.9744V11.027C71.6055 13.2993 70.9891 15.0121 69.7562 16.1655C68.5233 17.319 66.992 17.8951 65.1625 17.8941ZM65.1625 15.7005C67.1877 15.7005 68.2005 14.2739 68.2007 11.4207V10.4703C68.2007 9.2738 67.9278 8.34918 67.382 7.69643C66.8361 7.04368 66.0963 6.71784 65.1625 6.7189C64.2287 6.7189 63.4934 7.04475 62.9566 7.69643C62.4198 8.34812 62.1512 9.27273 62.151 10.4703V11.4215C62.1496 14.2747 63.1535 15.7013 65.1625 15.7013V15.7005Z" fill="white"/>
<path d="M73.2986 17.6034V4.79021H75.9708C76.108 5.07771 76.215 5.37872 76.2899 5.68838C76.5012 6.32251 76.6069 7.03588 76.6069 7.82849V8.09251C76.8534 6.96596 77.3729 6.08096 78.1655 5.43751C78.9582 4.79407 79.9357 4.47261 81.0981 4.47315C82.401 4.47315 83.4137 4.85177 84.1364 5.60901C84.8591 6.36625 85.2201 7.49347 85.2196 8.99068V17.6054H81.8906V9.15021C81.8906 7.74101 81.1774 7.03642 79.7509 7.03642C78.8346 7.03642 78.0902 7.35787 77.5175 8.00078C76.9447 8.64369 76.6585 9.5376 76.6588 10.6825V17.6034H73.2986Z" fill="white"/>
<path d="M93.255 17.8941C91.4408 17.8941 89.9173 17.3172 88.6844 16.1636C87.4515 15.0099 86.835 13.3058 86.835 11.0514V10.9987C86.835 8.9905 87.4294 7.40091 88.6182 6.22994C89.807 5.05898 91.3526 4.47404 93.255 4.4751C95.1568 4.4751 96.7067 5.05633 97.9045 6.21878C99.1023 7.38123 99.7012 8.96578 99.7012 10.9724V11.0251C99.7012 13.2973 99.0848 15.0102 97.8518 16.1636C96.6189 17.317 95.0866 17.8938 93.255 17.8941ZM93.255 15.7005C95.2802 15.7005 96.293 14.2739 96.2932 11.4207V10.4703C96.2932 9.2738 96.0202 8.34919 95.474 7.69644C94.9279 7.04369 94.1882 6.71784 93.255 6.71891C92.3209 6.71891 91.5856 7.04475 91.049 7.69644C90.5125 8.34812 90.2438 9.27274 90.243 10.4703V11.4215C90.243 14.2747 91.247 15.7013 93.255 15.7013V15.7005Z" fill="white"/>
<path d="M11.2155 17.2717C11.2157 17.3864 11.1841 17.4989 11.1243 17.5967C11.0644 17.6945 10.9787 17.7739 10.8765 17.826C10.7743 17.8781 10.6597 17.9008 10.5454 17.8918C10.431 17.8827 10.3214 17.8421 10.2288 17.7746L0.25565 10.4597C0.176744 10.4021 0.112491 10.3267 0.0680819 10.2397C0.0236724 10.1527 0.00035085 10.0564 9.23893e-07 9.95875V0.622169C-0.00019688 0.50748 0.0313711 0.394977 0.0912048 0.297133C0.151038 0.199289 0.2368 0.119926 0.338982 0.0678439C0.441163 0.0157619 0.555772 -0.00700455 0.670102 0.00206856C0.784432 0.0111417 0.894015 0.0516999 0.986703 0.119247L10.9598 7.43416C11.0389 7.49188 11.1032 7.56743 11.1476 7.65467C11.1921 7.74191 11.2153 7.83839 11.2155 7.93629V17.2717Z" fill="white"/>
<path d="M21.8954 17.2715C21.8957 17.3862 21.8642 17.4987 21.8044 17.5966C21.7446 17.6945 21.6589 17.7739 21.5567 17.826C21.4546 17.8781 21.34 17.9008 21.2257 17.8917C21.1113 17.8826 21.0018 17.8421 20.9091 17.7745L10.936 10.4596C10.8571 10.4019 10.7929 10.3266 10.7484 10.2396C10.704 10.1526 10.6807 10.0563 10.6804 9.95863V0.622047C10.6802 0.507358 10.7117 0.394855 10.7716 0.297011C10.8314 0.199166 10.9172 0.119804 11.0193 0.0677219C11.1215 0.0156399 11.2361 -0.00712662 11.3505 0.00194649C11.4648 0.0110196 11.5744 0.0515778 11.6671 0.119125L21.6402 7.43404C21.719 7.49173 21.7831 7.56711 21.8274 7.65412C21.8718 7.74112 21.8951 7.83732 21.8954 7.93497V17.2715Z" fill="white"/>
<path d="M32.5784 17.2715C32.5786 17.3862 32.5471 17.4987 32.4874 17.5966C32.4276 17.6945 32.3418 17.7739 32.2397 17.826C32.1375 17.8781 32.0229 17.9008 31.9086 17.8917C31.7943 17.8826 31.6847 17.8421 31.592 17.7745L21.6173 10.4596C21.5384 10.4019 21.4742 10.3266 21.4298 10.2396C21.3854 10.1526 21.362 10.0563 21.3617 9.95863V0.622047C21.3615 0.507358 21.3931 0.394855 21.4529 0.297011C21.5127 0.199166 21.5985 0.119804 21.7007 0.0677219C21.8029 0.0156399 21.9175 -0.00712662 22.0318 0.00194649C22.1461 0.0110196 22.2557 0.0515778 22.3484 0.119125L32.3215 7.43404C32.4007 7.49168 32.4653 7.56718 32.5099 7.65442C32.5545 7.74165 32.578 7.83818 32.5784 7.93617V17.2715Z" fill="white"/>
</svg>
