<svg width="558" height="121" viewBox="0 0 558 121" fill="none" xmlns="http://www.w3.org/2000/svg">
<path opacity="0.2" fill-rule="evenodd" clip-rule="evenodd" d="M0.914917 50.7039H18.3608V120.613H0.914917V50.7039Z" fill="#9DC8FF"/>
<path opacity="0.2" fill-rule="evenodd" clip-rule="evenodd" d="M24.903 16.748H42.3488V120.613H24.903V16.748Z" fill="#9DC8FF"/>
<path opacity="0.2" fill-rule="evenodd" clip-rule="evenodd" d="M49.9813 32.7273H67.4272V120.613H49.9813V32.7273Z" fill="#9DC8FF"/>
<path opacity="0.2" fill-rule="evenodd" clip-rule="evenodd" d="M99.048 50.7039H116.494V120.613H99.048V50.7039Z" fill="#9DC8FF"/>
<path opacity="0.2" fill-rule="evenodd" clip-rule="evenodd" d="M123.036 60.6909H140.482V120.613H123.036V60.6909Z" fill="#9DC8FF"/>
<path opacity="0.2" fill-rule="evenodd" clip-rule="evenodd" d="M148.114 32.7273H165.56V120.613H148.114V32.7273Z" fill="#9DC8FF"/>
<path opacity="0.2" fill-rule="evenodd" clip-rule="evenodd" d="M172.103 66.6831H189.548V120.613H172.103V66.6831Z" fill="#9DC8FF"/>
<path opacity="0.2" fill-rule="evenodd" clip-rule="evenodd" d="M73.9695 66.6831H91.4153V120.613H73.9695V66.6831Z" fill="#9DC8FF"/>
<path opacity="0.2" fill-rule="evenodd" clip-rule="evenodd" d="M197.181 50.7039H214.627V120.613H197.181V50.7039Z" fill="#9DC8FF"/>
<path opacity="0.2" fill-rule="evenodd" clip-rule="evenodd" d="M221.169 16.748H238.615V120.613H221.169V16.748Z" fill="#9DC8FF"/>
<path opacity="0.2" fill-rule="evenodd" clip-rule="evenodd" d="M246.247 32.7273H263.693V120.613H246.247V32.7273Z" fill="#9DC8FF"/>
<path opacity="0.2" fill-rule="evenodd" clip-rule="evenodd" d="M294.224 50.7039H311.669V120.613H294.224V50.7039Z" fill="#9DC8FF"/>
<path opacity="0.2" fill-rule="evenodd" clip-rule="evenodd" d="M319.302 60.6909H336.748V120.613H319.302V60.6909Z" fill="#9DC8FF"/>
<path opacity="0.2" fill-rule="evenodd" clip-rule="evenodd" d="M343.29 32.7273H360.736V120.613H343.29V32.7273Z" fill="#9DC8FF"/>
<path opacity="0.2" fill-rule="evenodd" clip-rule="evenodd" d="M368.368 66.6831H385.814V120.613H368.368V66.6831Z" fill="#9DC8FF"/>
<path opacity="0.2" fill-rule="evenodd" clip-rule="evenodd" d="M270.235 66.6831H287.681V120.613H270.235V66.6831Z" fill="#9DC8FF"/>
<path opacity="0.2" fill-rule="evenodd" clip-rule="evenodd" d="M392.356 50.7039H409.802V120.613H392.356V50.7039Z" fill="#9DC8FF"/>
<path opacity="0.2" fill-rule="evenodd" clip-rule="evenodd" d="M417.435 16.748H434.881V120.613H417.435V16.748Z" fill="#9DC8FF"/>
<path opacity="0.2" fill-rule="evenodd" clip-rule="evenodd" d="M441.423 32.7273H458.869V120.613H441.423V32.7273Z" fill="#9DC8FF"/>
<path opacity="0.2" fill-rule="evenodd" clip-rule="evenodd" d="M490.489 50.7039H507.935V120.613H490.489V50.7039Z" fill="#9DC8FF"/>
<path fill-rule="evenodd" clip-rule="evenodd" d="M515.568 0.768921H533.014V120.613H515.568V0.768921Z" fill="#157AFF"/>
<path opacity="0.2" fill-rule="evenodd" clip-rule="evenodd" d="M539.556 32.7273H557.002V120.613H539.556V32.7273Z" fill="#9DC8FF"/>
<path opacity="0.2" fill-rule="evenodd" clip-rule="evenodd" d="M466.501 66.6831H483.947V120.613H466.501V66.6831Z" fill="#9DC8FF"/>
</svg>
